<svg xmlns="http://www.w3.org/2000/svg" viewBox="0 0 1000 100" preserveAspectRatio="none">
  <path d="M0,100 L0,65 C20,60 45,46 75,44 C95,43 110,32 135,35 C155,38 175,58 205,68 C225,74 245,56 265,45 C280,36 295,54 315,58 C335,62 355,36 375,28 C395,20 415,48 435,58 C460,70 480,64 505,62 C530,60 550,44 570,42 C590,40 605,28 625,32 C645,36 665,46 685,30 C700,18 720,36 740,32 C760,28 780,32 805,36 C830,40 865,42 885,34 C905,26 915,22 935,26 C955,30 975,44 1000,50 L1000,100 Z" fill="#ffffff"/>
</svg>
